<svg width="10" height="10" viewBox="0 0 10 10" fill="none" xmlns="http://www.w3.org/2000/svg">
<path d="M5.55556 4.72222V2.5H4.44444V5.83333H6.66667V4.72222H5.55556Z" fill="#151515"/>
<path fill-rule="evenodd" clip-rule="evenodd" d="M10 5C10 7.76142 7.76142 10 5 10C2.23858 10 0 7.76142 0 5C0 2.23858 2.23858 0 5 0C7.76142 0 10 2.23858 10 5ZM8.88889 5C8.88889 7.14777 7.14777 8.88889 5 8.88889C2.85223 8.88889 1.11111 7.14777 1.11111 5C1.11111 2.85223 2.85223 1.11111 5 1.11111C7.14777 1.11111 8.88889 2.85223 8.88889 5Z" fill="#151515"/>
</svg>
