<svg width="28" height="28" viewBox="0 0 28 28" fill="none" xmlns="http://www.w3.org/2000/svg">
  <path d="M9.04175 4.08341C7.76512 4.08341 6.70842 5.14012 6.70842 6.41675V25.0834C6.70842 26.36 7.76512 27.4167 9.04175 27.4167H23.0417C24.3184 27.4167 25.3751 26.36 25.3751 25.0834V11.0834L18.3751 4.08341H9.04175ZM9.04175 6.41675H17.2084V12.2501H23.0417V25.0834H9.04175V6.41675ZM11.3751 15.7501V18.0834H20.7084V15.7501H11.3751ZM11.3751 20.4167V22.7501H20.7084V20.4167H11.3751Z" fill="black"/>
  <path d="M15.4584 2.62508H8.75008C6.81709 2.62508 5.25008 4.19208 5.25008 6.12508V21.2917H2.91675V6.12508C2.91675 2.90342 5.52842 0.291748 8.75008 0.291748H15.4584V2.62508Z" fill="black"/>
</svg>
